<svg width="26" height="25" viewBox="0 0 26 25" fill="none" xmlns="http://www.w3.org/2000/svg">
<path d="M25 25.0001C24.8248 25.0013 24.6524 24.9564 24.5 24.8701L5.5 13.8701C5.3461 13.7829 5.21809 13.6564 5.12903 13.5035C5.03998 13.3507 4.99305 13.177 4.99305 13.0001C4.99305 12.8232 5.03998 12.6494 5.12903 12.4966C5.21809 12.3438 5.3461 12.2173 5.5 12.1301L24.5 1.13007C24.652 1.0423 24.8245 0.996094 25 0.996094C25.1755 0.996094 25.348 1.0423 25.5 1.13007C25.6526 1.21817 25.7792 1.34504 25.867 1.49781C25.9548 1.65059 26.0007 1.82386 26 2.00007V24.0001C26 24.2653 25.8946 24.5196 25.7071 24.7072C25.5196 24.8947 25.2652 25.0001 25 25.0001ZM8 13.0001L24 22.2701V3.73007L8 13.0001ZM0 1.00007H2V25.0001H0V1.00007Z" fill="black"/>
</svg>
