<svg width="184" height="184" viewBox="0 0 184 184" fill="none" xmlns="http://www.w3.org/2000/svg">
<path d="M143.75 11.7875C143.75 6.0375 137.713 0 131.388 0H52.6125C46.2875 0 40.25 6.0375 40.25 11.7875V171.925C40.25 177.962 46.2875 183.713 52.6125 183.713H131.675C137.712 183.713 144.037 177.675 144.037 171.925V11.7875H143.75Z" fill="#5C6D6D"/>
<path d="M140.875 169.625C140.875 175.375 135.125 181.125 129.375 181.125H54.625C48.875 181.125 43.125 175.375 43.125 169.625V14.375C43.125 8.625 48.875 2.875 54.625 2.875H129.375C135.125 2.875 140.875 8.625 140.875 14.375V169.625Z" fill="#212528"/>
<path d="M125.062 15.8125C126.65 15.8125 127.938 14.5253 127.938 12.9375C127.938 11.3497 126.65 10.0625 125.062 10.0625C123.475 10.0625 122.188 11.3497 122.188 12.9375C122.188 14.5253 123.475 15.8125 125.062 15.8125Z" fill="#94989B"/>
<path d="M100.625 12.9375C100.625 13.8 100.338 14.375 99.7625 14.375H84.2375C83.6625 14.375 83.375 13.8 83.375 12.9375C83.375 12.3625 83.6625 11.5 84.2375 11.5H99.7625C100.338 11.5 100.625 12.3625 100.625 12.9375Z" fill="#94989B"/>
<path d="M48.875 23H135.125V161H48.875V23Z" fill="#3E4347"/>
<path d="M102.924 173.073C102.924 174.223 102.062 175.373 100.624 175.373H83.3742C82.2242 175.373 81.0742 174.511 81.0742 173.073V168.761C81.0742 167.611 81.9367 166.461 83.3742 166.461H100.624C101.774 166.461 102.924 167.323 102.924 168.761V173.073Z" fill="#94989B"/>
<path d="M69.0016 42.2641C69.0016 43.7016 67.8516 44.5641 66.7016 44.5641H57.2141C55.7766 44.5641 54.9141 43.4141 54.9141 42.2641V32.7766C54.9141 31.3391 56.0641 30.4766 57.2141 30.4766H66.7016C68.1391 30.4766 69.0016 31.6266 69.0016 32.7766V42.2641Z" fill="#42ADE2"/>
<path d="M89.1266 42.2641C89.1266 43.7016 87.9766 44.5641 86.8266 44.5641H77.3391C75.9016 44.5641 75.0391 43.4141 75.0391 42.2641V32.7766C75.0391 31.3391 76.1891 30.4766 77.3391 30.4766H86.8266C88.2641 30.4766 89.1266 31.6266 89.1266 32.7766V42.2641Z" fill="#C7E755"/>
<path d="M109.252 42.2641C109.252 43.7016 108.102 44.5641 106.952 44.5641H97.4641C96.0266 44.5641 95.1641 43.4141 95.1641 42.2641V32.7766C95.1641 31.3391 96.3141 30.4766 97.4641 30.4766H106.952C108.389 30.4766 109.252 31.6266 109.252 32.7766V42.2641Z" fill="#F2B200"/>
<path d="M129.377 42.2641C129.377 43.7016 128.227 44.5641 127.077 44.5641H117.589C116.152 44.5641 115.289 43.4141 115.289 42.2641V32.7766C115.289 31.3391 116.439 30.4766 117.589 30.4766H127.077C128.514 30.4766 129.377 31.6266 129.377 32.7766V42.2641Z" fill="#42ADE2"/>
<path d="M69.0016 152.952C69.0016 154.389 67.8516 155.252 66.7016 155.252H57.2141C55.7766 155.252 54.9141 154.102 54.9141 152.952V143.464C54.9141 142.027 56.0641 141.164 57.2141 141.164H66.7016C68.1391 141.164 69.0016 142.314 69.0016 143.464V152.952Z" fill="#C7E755"/>
<path d="M89.1266 152.952C89.1266 154.389 87.9766 155.252 86.8266 155.252H77.3391C75.9016 155.252 75.0391 154.102 75.0391 152.952V143.464C75.0391 142.027 76.1891 141.164 77.3391 141.164H86.8266C88.2641 141.164 89.1266 142.314 89.1266 143.464V152.952Z" fill="#FF435E"/>
<path d="M109.252 152.952C109.252 154.389 108.102 155.252 106.952 155.252H97.4641C96.0266 155.252 95.1641 154.102 95.1641 152.952V143.464C95.1641 142.027 96.3141 141.164 97.4641 141.164H106.952C108.389 141.164 109.252 142.314 109.252 143.464V152.952Z" fill="#42ADE2"/>
<path d="M129.377 152.952C129.377 154.389 128.227 155.252 127.077 155.252H117.589C116.152 155.252 115.289 154.102 115.289 152.952V143.464C115.289 142.027 116.439 141.164 117.589 141.164H127.077C128.514 141.164 129.377 142.314 129.377 143.464V152.952Z" fill="#C28FEF"/>
<path d="M69.0016 97.4633C69.0016 98.9008 67.8516 99.7633 66.7016 99.7633H57.2141C55.7766 99.7633 54.9141 98.6133 54.9141 97.4633V87.9758C54.9141 86.5383 56.0641 85.6758 57.2141 85.6758H66.7016C68.1391 85.6758 69.0016 86.8258 69.0016 87.9758V97.4633Z" fill="#C7E755"/>
<path d="M89.1266 97.4633C89.1266 98.9008 87.9766 99.7633 86.8266 99.7633H77.3391C75.9016 99.7633 75.0391 98.6133 75.0391 97.4633V87.9758C75.0391 86.5383 76.1891 85.6758 77.3391 85.6758H86.8266C88.2641 85.6758 89.1266 86.8258 89.1266 87.9758V97.4633Z" fill="#C28FEF"/>
<path d="M109.252 97.4633C109.252 98.9008 108.102 99.7633 106.952 99.7633H97.4641C96.0266 99.7633 95.1641 98.6133 95.1641 97.4633V87.9758C95.1641 86.5383 96.3141 85.6758 97.4641 85.6758H106.952C108.389 85.6758 109.252 86.8258 109.252 87.9758V97.4633Z" fill="#42ADE2"/>
<path d="M69.0016 79.0609C69.0016 80.4984 67.8516 81.3609 66.7016 81.3609H57.2141C55.7766 81.3609 54.9141 80.2109 54.9141 79.0609V69.5734C54.9141 68.1359 56.0641 67.2734 57.2141 67.2734H66.7016C68.1391 67.2734 69.0016 68.4234 69.0016 69.5734V79.0609Z" fill="#FF435E"/>
<path d="M89.1266 79.0609C89.1266 80.4984 87.9766 81.3609 86.8266 81.3609H77.3391C75.9016 81.3609 75.0391 80.2109 75.0391 79.0609V69.5734C75.0391 68.1359 76.1891 67.2734 77.3391 67.2734H86.8266C88.2641 67.2734 89.1266 68.4234 89.1266 69.5734V79.0609Z" fill="#F2B200"/>
<path d="M109.252 79.0609C109.252 80.4984 108.102 81.3609 106.952 81.3609H97.4641C96.0266 81.3609 95.1641 80.2109 95.1641 79.0609V69.5734C95.1641 68.1359 96.3141 67.2734 97.4641 67.2734H106.952C108.389 67.2734 109.252 68.4234 109.252 69.5734V79.0609Z" fill="#C7E755"/>
<path d="M129.377 79.0609C129.377 80.4984 128.227 81.3609 127.077 81.3609H117.589C116.152 81.3609 115.289 80.2109 115.289 79.0609V69.5734C115.289 68.1359 116.439 67.2734 117.589 67.2734H127.077C128.514 67.2734 129.377 68.4234 129.377 69.5734V79.0609Z" fill="#F2B200"/>
<path d="M69.0016 60.6625C69.0016 62.1 67.8516 62.9625 66.7016 62.9625H57.2141C55.7766 62.9625 54.9141 61.8125 54.9141 60.6625V51.175C54.9141 49.7375 56.0641 48.875 57.2141 48.875H66.7016C68.1391 48.875 69.0016 50.025 69.0016 51.175V60.6625Z" fill="#C28FEF"/>
<path d="M89.1266 60.6625C89.1266 62.1 87.9766 62.9625 86.8266 62.9625H77.3391C75.9016 62.9625 75.0391 61.8125 75.0391 60.6625V51.175C75.0391 49.7375 76.1891 48.875 77.3391 48.875H86.8266C88.2641 48.875 89.1266 50.025 89.1266 51.175V60.6625Z" fill="#42ADE2"/>
<path d="M109.252 60.6625C109.252 62.1 108.102 62.9625 106.952 62.9625H97.4641C96.0266 62.9625 95.1641 61.8125 95.1641 60.6625V51.175C95.1641 49.7375 96.3141 48.875 97.4641 48.875H106.952C108.389 48.875 109.252 50.025 109.252 51.175V60.6625Z" fill="#FF435E"/>
<path d="M129.377 60.6625C129.377 62.1 128.227 62.9625 127.077 62.9625H117.589C116.152 62.9625 115.289 61.8125 115.289 60.6625V51.175C115.289 49.7375 116.439 48.875 117.589 48.875H127.077C128.514 48.875 129.377 50.025 129.377 51.175V60.6625Z" fill="#C28FEF"/>
</svg>
