<svg width="312" height="480" viewBox="0 0 312 480" fill="none" xmlns="http://www.w3.org/2000/svg">
<path d="M0 32V448C0.00952843 456.484 3.38401 464.618 9.38311 470.617C15.3822 476.616 23.516 479.99 32 480H280C288.484 479.99 296.618 476.616 302.617 470.617C308.616 464.618 311.99 456.484 312 448V32C311.99 23.516 308.616 15.3822 302.617 9.38311C296.618 3.38401 288.484 0.00952843 280 0H32C23.516 0.00952843 15.3822 3.38401 9.38311 9.38311C3.38401 15.3822 0.00952843 23.516 0 32V32ZM280.021 448H32V32H280L280.021 448Z" fill="black"/>
</svg>
